<?xml version="1.0" encoding="UTF-8"?>
<svg xmlns="http://www.w3.org/2000/svg" viewBox="0 0 569.15 468.5">
  <defs>
    <style>
      .cls-1, .cls-2, .cls-3 {
        fill: #f5c295;
      }

      .cls-4 {
        fill: #5db747;
        stroke: #fff;
        stroke-width: 4px;
      }

      .cls-4, .cls-5, .cls-2, .cls-6, .cls-7, .cls-3, .cls-8, .cls-9, .cls-10, .cls-11 {
        stroke-miterlimit: 10;
      }

      .cls-5 {
        fill: #1fa853;
      }

      .cls-5, .cls-2, .cls-7, .cls-3, .cls-8, .cls-10, .cls-11 {
        stroke: #231f20;
      }

      .cls-5, .cls-6, .cls-7, .cls-3, .cls-9, .cls-10 {
        stroke-width: 3px;
      }

      .cls-12 {
        fill: #231f20;
      }

      .cls-2, .cls-8 {
        stroke-width: 2px;
      }

      .cls-6 {
        fill: #ebeea3;
      }

      .cls-6, .cls-9 {
        stroke: #070808;
      }

      .cls-7, .cls-13 {
        fill: #fff;
      }

      .cls-14 {
        fill: #020202;
      }

      .cls-8, .cls-10 {
        fill: none;
      }

      .cls-15 {
        fill: #eb94ad;
      }

      .cls-9 {
        fill: #05322e;
      }

      .cls-16 {
        fill: #b89372;
      }

      .cls-17 {
        fill: #1c8943;
      }

      .cls-18 {
        fill: #ac896a;
      }
    </style>
  </defs>
  <g id="Layer_4">
    <circle class="cls-6" cx="282.03" cy="234.25" r="232.75"/>
  </g>
  <g id="Layer_3">
    <path class="cls-5" d="M2.2,187.09s63.17,143.81,153.56,118.08c0,0,46.34-138.14-153.56-118.08Z"/>
    <path class="cls-5" d="M99.33,102.12s-3.57,106.54,63.25,134.68c0,0,14.35,11.01,24.4-6.49s46.19-74.54-87.65-128.19Z"/>
    <path class="cls-9" d="M169.92,211.11l7.91,156.42s10.56,3.95,14.03,11.29h-51.87s7.91-9.04,15.81-11.29,5.08-50.82,5.08-50.82c0,0-35.58-93.18-93.18-73.41,0,0,60.99-25.22,93.18,44.42,0,0,18.07-106.23-22.59-123.89,0,0,26.54,10.58,31.62,47.28Z"/>
    <ellipse class="cls-4" cx="277.74" cy="414.07" rx="167.15" ry="24.85"/>
    <g>
      <path class="cls-5" d="M566.95,193.05s-63.17,143.81-153.56,118.08c0,0-46.34-138.14,153.56-118.08Z"/>
      <path class="cls-5" d="M469.82,108.07s3.57,106.54-63.25,134.68c0,0-14.35,11.01-24.4-6.49-10.05-17.51-46.19-74.54,87.65-128.19Z"/>
      <path class="cls-9" d="M399.23,217.06l-7.91,156.42s-10.56,3.95-14.03,11.29h51.87s-7.91-9.04-15.81-11.29-5.08-50.82-5.08-50.82c0,0,35.58-93.18,93.18-73.41,0,0-60.99-25.22-93.18,44.42,0,0-18.07-106.23,22.59-123.89,0,0-26.54,10.58-31.62,47.28Z"/>
    </g>
  </g>
  <g id="Layer_2">
    <path class="cls-1" d="M260.96,229.72s19.33,35.88,45.13-1.61l-45.13,1.61Z"/>
    <path class="cls-9" d="M227.19,347.1l-1.64-23.66-.58-8.33s-2.72,50.44,14.22,80.18h31.01l2.49-54.96,17.69,1.13,4.28,53.84h32.23s14.68-73.79,0-85.84h-102.1"/>
    <path class="cls-5" d="M268.55,73.92s5.48,5.9,1.63,7.63,10.92,0,10.92,0c0,0-4.77-6,0-9.14s-10.32-3.9-10.32-3.9"/>
    <path class="cls-5" d="M227.4,48.18s7.45,40.01,33.75,28.85-10.98-39.02-33.75-28.85Z"/>
    <path class="cls-5" d="M318.56,36.89s-46.98-10.92-47.77,31.62c0,0,26.22,13.55,35.3-2.26s12.47-29.36,12.47-29.36Z"/>
    <g>
      <path class="cls-7" d="M235.1,220.61s-50.53,32.38-34.34,102.02l10.16,3.39s16.74-56.85,24.18-63.62-20.13,36.89-9.36,84.71l34.03,2.64.35-119.1-25.03-10.03Z"/>
      <path class="cls-3" d="M201.12,323.5s-21.51,21.52,4.15,22.84l3.67-7.91v9.04s10.73-9.88,2.54-22.59l-10.36-1.39Z"/>
    </g>
    <path class="cls-5" d="M261.75,232.33s17.08,22.51,41.11-.06l.25,86.42s-10.5,11.86-41.36,2.82v-89.17Z"/>
    <path class="cls-9" d="M230.29,412.98h36.38v-15.44h-19.95s-18.92,4.14-16.42,15.44Z"/>
    <path class="cls-9" d="M335.39,412.98h-36.38v-15.44h19.95s18.92,4.14,16.42,15.44Z"/>
    <path class="cls-12" d="M281.1,231.67c-18.97,0-46.05-7.9-58.87-22.53-4.63-5.29-7.26-11.44-8.45-19.8-6.63-.04-12.01-5.45-12.01-12.09,0-6.13,4.6-11.21,10.53-11.98-.42-5.38-1.14-9.93-2.25-14.21-3.44-13.3.23-27.79,10.35-40.81,14.26-18.36,38.56-30.66,60.53-30.66h.18c19.95.06,41.07,9.87,55.12,25.6,12.05,13.5,17.72,29.72,15.96,45.66-.43,3.91-.66,7.84-.82,11.33,6.5.19,11.73,5.54,11.73,12.08s-5.42,12.09-12.09,12.09c-.37,0-.75-.02-1.12-.05-1.52,11.65-4.88,19.78-10.78,26.24-12.07,13.21-37.83,19.12-58.01,19.12ZM216.4,186.09l.18,1.5c1.01,8.44,3.45,14.48,7.91,19.57,9.13,10.43,32.08,21.51,56.61,21.51,27.09,0,47.54-9.11,55.79-18.14,5.71-6.25,8.86-14.3,10.21-26.12l.19-1.67,1.64.38c.68.16,1.38.24,2.08.24,5.01,0,9.09-4.08,9.09-9.09s-4.08-9.09-9.09-9.09c-.38,0-.71.02-1.02.06l-1.76.22.07-1.77c.16-3.92.4-8.54.91-13.16,1.67-15.09-3.74-30.48-15.22-43.34-13.5-15.12-33.77-24.54-52.89-24.6-.06,0-.11,0-.17,0-21.09,0-44.45,11.84-58.16,29.5-9.53,12.27-13.01,25.84-9.81,38.22,1.26,4.86,2.03,10.02,2.44,16.26l.11,1.6h-1.6c-5.05,0-9.13,4.07-9.13,9.08s4.08,9.09,9.09,9.09c.39,0,.73-.02,1.04-.06l1.5-.19Z"/>
    <polygon class="cls-17" points="261.75 234.25 261.75 320.09 268.51 323.23 261.75 234.25"/>
    <path class="cls-10" d="M261.75,232.33s17.08,22.51,41.11-.06l.25,86.42s-10.5,11.86-41.36,2.82v-89.17Z"/>
    <path class="cls-14" d="M235.8,51.99s21.25,10.18,23.64,21.01c0,0,13.36-7.6-23.64-21.01Z"/>
    <path class="cls-14" d="M304.37,44.27s-21.25,10.18-23.64,21.01c0,0-13.36-7.6,23.64-21.01Z"/>
    <g>
      <path class="cls-7" d="M329.48,220.61s50.53,32.38,34.34,102.02l-10.16,3.39s-16.74-56.85-24.18-63.62c-7.44-6.78,20.13,36.89,9.36,84.71l-34.03,2.64-.35-119.1,25.03-10.03Z"/>
      <path class="cls-3" d="M363.46,323.5s21.51,21.52-4.15,22.84l-3.67-7.91v9.04s-10.73-9.88-2.54-22.59l10.36-1.39Z"/>
    </g>
    <g>
      <g>
        <path class="cls-1" d="M361.6,174.73c0,5.85-4.74,10.59-10.59,10.59-.83,0-1.65-.1-2.42-.28-1.16,10.17-3.77,19.5-10.59,26.96-12.36,13.53-38.89,18.63-56.9,18.63s-45.26-7.77-57.74-22.02c-5.34-6.1-7.38-12.94-8.27-20.38-.4.05-.81.07-1.23.07-5.85,0-10.59-4.74-10.59-10.59s4.74-10.58,10.59-10.58h.04c-.34-5.15-.98-10.49-2.4-15.98-8.94-34.55,32.78-69.71,69.6-69.6,36.73.11,73.66,32.81,69.6,69.6-.48,4.34-.72,8.72-.9,13.06.4-.05.8-.07,1.21-.07,5.85,0,10.59,4.74,10.59,10.59Z"/>
        <path class="cls-12" d="M281.1,232.13c-18.97,0-46.05-7.9-58.87-22.53-4.63-5.29-7.26-11.44-8.45-19.8-6.63-.04-12.01-5.45-12.01-12.09,0-6.13,4.6-11.21,10.53-11.98-.42-5.38-1.14-9.93-2.25-14.21-3.44-13.3.23-27.79,10.35-40.81,14.26-18.36,38.56-30.66,60.53-30.66.06,0,.12,0,.18,0,19.95.06,41.07,9.87,55.12,25.6,12.05,13.5,17.72,29.72,15.96,45.66-.43,3.91-.66,7.84-.82,11.33,6.5.19,11.73,5.54,11.73,12.08s-5.42,12.09-12.09,12.09c-.37,0-.75-.02-1.12-.05-1.52,11.65-4.88,19.78-10.78,26.24-12.07,13.21-37.83,19.12-58.01,19.12ZM216.4,186.56l.18,1.5c1.01,8.44,3.45,14.47,7.91,19.57,9.13,10.43,32.08,21.51,56.61,21.51,27.09,0,47.54-9.11,55.79-18.14,5.71-6.25,8.86-14.3,10.21-26.12l.19-1.67,1.64.38c.68.16,1.38.24,2.08.24,5.01,0,9.09-4.08,9.09-9.09s-4.08-9.09-9.09-9.09c-.38,0-.71.02-1.02.06l-1.76.22.07-1.77c.16-3.92.4-8.54.91-13.16,1.67-15.09-3.74-30.48-15.22-43.34-13.5-15.12-33.77-24.54-52.89-24.6-.06,0-.11,0-.17,0-21.09,0-44.45,11.84-58.16,29.5-9.53,12.27-13.01,25.84-9.81,38.22,1.26,4.86,2.03,10.02,2.44,16.26l.11,1.6h-1.6c-5.05,0-9.13,4.07-9.13,9.08s4.08,9.09,9.09,9.09c.39,0,.73-.02,1.04-.06l1.5-.19Z"/>
      </g>
      <path class="cls-2" d="M270.2,202.12s14.49,5.84,24.47,0"/>
      <path class="cls-11" d="M264.33,143.61c0,1.46-3.48,0-7.77,0s-7.77,1.46-7.77,0,3.48-2.64,7.77-2.64,7.77,1.18,7.77,2.64Z"/>
      <path class="cls-11" d="M319.95,142.61c0,1.46-3.48,0-7.77,0s-7.77,1.46-7.77,0,3.48-2.64,7.77-2.64,7.77,1.18,7.77,2.64Z"/>
      <ellipse class="cls-15" cx="327.51" cy="183.67" rx="10.66" ry="10"/>
      <ellipse class="cls-15" cx="242.42" cy="183.67" rx="10.66" ry="10"/>
      <path class="cls-18" d="M277.08,187.08s6.49,6.25,15.61-.38"/>
      <path class="cls-8" d="M264.33,162.62c0-4.04-5.55-7.31-12.4-7.31s-12.4,3.27-12.4,7.31"/>
      <circle cx="254.91" cy="165.05" r="9.77"/>
      <circle class="cls-13" cx="258.71" cy="162.09" r="2.15"/>
      <path class="cls-8" d="M299.95,161.81c0-4.04,5.55-7.31,12.4-7.31s12.4,3.27,12.4,7.31"/>
      <circle cx="309.56" cy="164.24" r="9.77"/>
      <circle class="cls-13" cx="313.36" cy="161.28" r="2.15"/>
      <path class="cls-16" d="M216.08,184.54s-1.14,11.28,5.46,21.4c3,4.6,6.96,8.02,14.49,11.68,2.08,1.01,7.62,3.62,10.14,4.47s7.66,2.15,10.66,2.79c0,0-33.43-15.02-40.75-40.34Z"/>
      <path class="cls-16" d="M212.41,171.92s-1.66,1.11-2.04,3.43c-.18,1.05-.06,2.14.54,3.87.17.48.62,1.74.87,2.28s.82,1.58,1.17,2.18c0,0-2.83-7.55-.54-11.75Z"/>
      <path class="cls-16" d="M350.79,168.94s1.66,1.11,2.04,3.43c.18,1.05.06,2.14-.54,3.87-.17.48-.62,1.74-.87,2.28s-.82,1.58-1.17,2.18c0,0,2.83-7.55.54-11.75Z"/>
    </g>
  </g>
</svg>